<?xml version="1.0" standalone="no"?>
<!DOCTYPE svg PUBLIC "-//W3C//DTD SVG 20010904//EN"
 "http://www.w3.org/TR/2001/REC-SVG-20010904/DTD/svg10.dtd">
<svg version="1.0" xmlns="http://www.w3.org/2000/svg"
 width="800.000000pt" height="550.000000pt" viewBox="0 0 800.000000 550.000000"
 preserveAspectRatio="xMidYMid meet">
<metadata>
Created by potrace 1.16, written by Peter Selinger 2001-2019
</metadata>
<g transform="translate(0.000000,550.000000) scale(0.100000,-0.100000)"
fill="#000000" stroke="none">
<path d="M147 5458 c7 -58 33 -102 64 -106 29 -5 59 -30 59 -51 0 -9 7 -25 15
-35 14 -18 15 -18 15 -2 0 10 -6 30 -14 44 -18 35 -36 94 -36 116 0 10 -8 31
-17 47 -14 24 -24 29 -54 29 l-37 0 5 -42z"/>
<path d="M2997 5490 c53 -12 76 -34 111 -101 32 -62 33 -68 42 -244 5 -99 8
-204 6 -232 -1 -31 2 -54 8 -56 8 -3 7 -8 -1 -18 -18 -22 -23 -146 -29 -780
-7 -666 6 -973 37 -893 6 16 8 15 8 -8 1 -15 5 -30 11 -33 11 -7 18 21 23 90
2 28 4 -17 3 -100 -1 -118 -4 -149 -14 -147 -18 3 -92 -17 -92 -26 0 -4 27 -5
60 -4 57 4 59 3 66 -22 12 -48 3 -53 -113 -62 -59 -5 -116 -7 -125 -6 -17 2
-18 -15 -18 -232 l0 -235 38 4 c20 2 66 8 102 14 36 6 81 11 101 11 l36 0 -4
393 c-2 215 -9 748 -15 1182 -14 896 -14 856 -10 1223 1 173 6 272 12 272 6 0
10 -10 10 -21 0 -17 3 -19 14 -10 16 14 25 -497 29 -1622 2 -589 4 -689 17
-697 18 -11 33 -2 26 16 -3 8 -1 14 4 14 10 0 15 -27 12 -62 -1 -10 5 -18 12
-18 9 0 12 7 9 20 -3 11 0 26 6 33 6 8 8 24 5 38 -7 26 -5 657 2 894 2 83 6
344 7 580 3 425 12 615 28 615 5 0 9 6 9 13 0 8 16 36 35 63 19 27 40 57 47
67 7 9 17 17 23 17 6 0 16 9 23 20 8 13 23 20 42 20 17 0 30 5 30 11 0 5 5 7
10 4 6 -3 10 1 10 9 0 14 -39 16 -342 15 -189 -1 -328 -4 -311 -9z"/>
<path d="M331 5313 c-8 -28 -9 -52 -1 -93 17 -84 16 -94 -1 -98 -11 -2 -25 11
-40 34 -18 30 -24 34 -29 20 -5 -14 -10 -12 -37 14 l-32 31 -3 -28 c-3 -27 -4
-28 -73 -30 -38 -1 -72 -3 -75 -4 -3 -1 -12 -2 -20 -3 -13 -1 -15 -44 -18
-311 -2 -243 0 -307 10 -297 7 7 24 12 39 12 53 0 45 -30 -14 -55 -38 -16 -53
-55 -22 -55 8 0 15 -4 15 -8 0 -12 72 -35 107 -35 15 0 47 3 70 6 l42 7 -17
-33 c-9 -17 -18 -33 -19 -35 -1 -2 -13 4 -28 14 -34 22 -106 22 -139 0 -25
-16 -38 -45 -14 -29 13 7 157 5 171 -4 4 -2 2 -13 -3 -24 -9 -15 -15 -17 -30
-9 -29 15 -68 12 -78 -7 -9 -15 -13 -15 -46 5 -21 12 -39 22 -42 22 -11 0 -2
-256 11 -327 8 -43 15 -92 15 -108 0 -17 5 -36 10 -41 7 -7 3 -19 -14 -37 -20
-22 -25 -37 -24 -77 1 -40 4 -48 15 -38 20 16 23 8 25 -66 1 -49 -2 -70 -13
-77 -11 -7 -11 -9 -1 -9 11 0 13 -15 8 -67 -2 -38 -5 -75 -5 -83 0 -8 0 -78 0
-155 0 -230 1 -225 -16 -225 -10 0 -15 -10 -15 -30 0 -22 4 -28 15 -24 12 5
15 -3 15 -41 0 -25 -4 -44 -9 -41 -5 3 -7 15 -4 26 3 11 0 20 -6 20 -8 0 -11
-101 -10 -361 0 -313 2 -359 15 -349 10 9 14 9 14 1 0 -6 -7 -14 -15 -17 -11
-5 -15 -22 -15 -68 0 -38 4 -56 9 -47 5 8 11 9 15 3 3 -6 -1 -17 -9 -25 -13
-14 -15 -74 -14 -439 1 -233 4 -412 6 -399 3 14 18 37 34 52 16 15 29 34 29
42 0 16 27 30 41 21 5 -3 9 -12 9 -20 0 -8 5 -14 10 -14 6 0 10 9 10 20 0 11
-7 20 -15 20 -19 0 -21 90 -3 108 9 9 8 12 -4 12 -9 0 -23 -11 -32 -25 -9 -14
-23 -25 -32 -25 -14 0 -14 2 1 16 17 17 15 41 -3 37 -6 -2 -10 6 -9 17 1 18 3
18 18 4 22 -20 42 -9 34 17 -4 10 -3 24 2 31 5 9 10 1 13 -22 6 -42 25 -48 60
-19 14 11 19 17 11 13 -14 -7 -14 -7 5 56 5 16 -1 21 -40 31 -56 14 -65 42
-12 38 19 -2 38 0 42 4 15 15 24 6 12 -13 -15 -24 -4 -37 18 -20 13 12 17 11
24 0 5 -8 6 -18 4 -22 -3 -4 4 -8 16 -8 11 0 38 -8 58 -18 l38 -18 -4 27 c-5
31 12 46 33 29 11 -9 12 -7 9 8 -6 21 20 47 36 37 6 -4 9 -14 6 -22 -3 -8 -2
-12 3 -8 5 3 12 -1 15 -7 3 -7 3 -2 0 12 -10 40 -33 60 -68 57 -25 -2 -30 1
-28 17 3 15 -1 17 -22 12 -26 -6 -26 -5 -40 57 -8 36 -38 68 -62 68 -11 -1
-38 -4 -60 -7 -26 -4 -44 -2 -48 5 -4 6 -2 11 4 11 8 0 10 9 6 26 -6 23 -5 25
16 19 13 -4 33 -14 46 -22 13 -8 35 -13 50 -12 42 3 61 -10 68 -47 8 -43 15
-47 50 -29 16 8 36 15 45 15 9 0 22 6 28 14 7 8 37 22 67 32 80 25 77 36 -7
30 -67 -4 -76 -7 -101 -35 l-28 -31 -31 22 c-29 22 -31 26 -25 72 3 26 9 53
14 60 16 22 31 66 23 66 -5 0 -12 -11 -15 -25 -4 -14 -10 -25 -15 -25 -12 0
19 111 36 129 11 10 12 16 4 19 -21 7 -11 19 17 20 26 0 28 -2 24 -28 -4 -26
-1 -29 39 -38 24 -5 47 -6 51 -3 13 11 -3 49 -23 54 -10 3 -19 10 -19 17 0 7
8 9 20 5 12 -4 26 0 36 9 14 14 12 15 -13 10 -22 -4 -34 1 -57 25 l-30 31 35
0 c19 1 46 6 61 13 40 17 21 38 -35 40 -37 2 -51 -3 -69 -21 -20 -19 -21 -24
-8 -33 11 -7 8 -8 -12 -5 -20 3 -28 0 -28 -10 0 -8 -5 -14 -11 -14 -8 0 -9 11
-5 31 3 17 6 35 6 40 0 5 6 9 13 9 15 0 37 56 42 105 2 17 6 40 10 51 5 17 2
23 -20 28 -15 4 -23 11 -19 17 4 8 9 7 15 -2 6 -10 9 -6 9 13 0 19 4 26 14 22
21 -8 57 35 52 63 -3 16 0 23 11 23 10 0 13 -6 9 -16 -5 -13 -3 -14 6 -6 18
15 66 3 73 -18 7 -22 54 -33 62 -14 3 9 13 12 28 8 20 -5 23 -3 18 15 -3 12
-1 21 6 21 6 0 11 -4 11 -9 0 -10 31 -21 71 -25 25 -3 26 -2 14 22 -21 38 -11
47 48 44 41 -2 48 0 35 8 -27 17 -21 30 13 30 17 0 28 4 24 10 -3 5 -1 10 5
10 6 0 8 5 5 10 -3 5 -16 10 -28 10 -22 1 -22 1 2 14 l23 13 -22 6 c-13 3 -36
-1 -51 -9 -33 -17 -39 -17 -39 -4 0 6 9 10 19 10 20 0 37 17 28 26 -3 3 -27 9
-54 14 -26 4 -42 8 -34 9 8 0 12 3 9 6 -3 3 -18 -1 -34 -10 -16 -8 -41 -15
-57 -15 -15 0 -36 -5 -47 -12 -16 -10 -23 -9 -43 10 -35 33 -75 29 -91 -8 -7
-17 -14 -28 -17 -26 -2 2 -9 -2 -15 -8 -9 -10 -2 -12 32 -10 32 2 47 -2 54
-14 8 -12 13 -14 16 -4 9 19 24 14 17 -5 -5 -15 -3 -16 8 -5 16 14 69 16 69 2
0 -5 5 -10 10 -10 6 0 10 11 10 25 0 14 4 25 9 25 6 0 6 -12 1 -31 -9 -29 -8
-31 14 -25 14 3 28 0 35 -8 9 -11 6 -12 -14 -8 -15 2 -25 0 -25 -7 0 -19 -29
-12 -40 10 -9 16 -18 19 -39 14 -15 -3 -41 0 -57 6 -16 7 -52 15 -80 18 -46 6
-51 5 -46 -11 3 -12 -1 -18 -12 -18 -9 0 -16 2 -16 5 0 11 24 55 31 55 4 0 5
9 2 19 -3 13 2 23 17 31 16 9 20 18 16 35 -8 30 47 163 79 193 28 26 31 34 10
26 -9 -4 -1 25 26 87 30 71 52 106 90 143 39 39 52 47 59 37 5 -8 4 -25 -1
-39 -7 -17 -6 -28 1 -32 6 -4 8 -14 4 -23 -3 -10 -1 -17 6 -17 6 0 10 -10 8
-22 -2 -13 4 -30 13 -39 9 -9 21 -25 27 -35 11 -18 11 -18 26 1 12 15 16 17
17 5 1 -8 1 -19 0 -24 -1 -6 2 -19 8 -30 5 -12 15 -39 22 -60 l12 -40 23 30
c13 16 24 39 24 52 0 17 5 22 18 20 9 -2 16 -9 15 -15 -2 -7 7 -15 20 -19 39
-12 66 -35 60 -50 -5 -13 -9 -12 -27 5 -48 45 -60 16 -24 -57 17 -37 19 -50
10 -74 -6 -16 -6 -28 -1 -28 5 0 9 6 9 13 0 6 14 21 30 32 17 11 35 34 42 52
7 20 16 29 26 26 12 -5 11 -1 -2 25 -9 17 -20 34 -26 37 -20 12 -10 25 15 19
16 -4 25 -2 25 6 0 6 -5 8 -11 4 -8 -4 -7 0 1 15 9 17 8 28 -4 51 -12 25 -12
30 -1 30 22 0 64 -43 71 -72 5 -24 3 -28 -16 -28 -20 0 -22 -4 -16 -32 4 -18
8 -43 10 -55 1 -12 7 -28 13 -35 15 -20 53 -103 53 -116 0 -7 4 -12 8 -12 4 0
8 9 8 20 0 11 -3 20 -7 20 -11 0 -29 134 -22 173 6 42 25 48 41 15 14 -29 16
-3 3 38 -5 16 -12 46 -16 67 -6 35 -9 38 -30 33 -27 -7 -38 13 -29 49 l6 24
39 -21 c44 -23 50 -29 54 -64 1 -14 11 -31 21 -39 17 -12 20 -11 26 3 4 11 7
4 7 -19 1 -20 4 -57 7 -82 l7 -46 29 40 c34 47 40 83 21 122 -8 16 -12 31 -10
34 9 9 77 -59 77 -77 0 -11 4 -21 9 -25 5 -3 12 -18 16 -33 3 -15 14 -38 25
-52 18 -23 20 -23 19 -5 0 11 -8 60 -19 110 -15 74 -23 93 -47 112 -33 27 -14
31 40 8 43 -18 43 -16 -4 80 -29 60 -77 105 -112 105 -26 0 -33 -30 -14 -62
22 -39 21 -48 -5 -48 -12 0 -19 3 -15 6 3 4 -1 20 -9 37 -12 23 -13 35 -5 53
9 21 8 24 -8 24 -10 0 -29 8 -42 19 -20 16 -21 21 -10 35 7 9 21 16 30 16 14
0 14 -2 1 -10 -24 -15 -2 -28 75 -44 38 -8 71 -13 73 -12 1 2 -16 16 -39 31
-37 27 -39 30 -23 42 10 7 24 13 32 13 8 0 -1 18 -24 45 -20 25 -45 45 -55 45
-10 0 -21 5 -24 10 -4 7 -14 2 -26 -11 -14 -16 -18 -31 -14 -51 5 -21 3 -28
-8 -28 -9 0 -17 14 -21 33 -6 33 -7 34 -49 27 -51 -7 -67 -16 -67 -36 0 -8 -4
-14 -9 -14 -4 0 -6 -10 -4 -23 4 -21 2 -23 -31 -19 -38 4 -43 11 -24 30 6 6
16 26 23 44 l11 33 -44 3 c-30 2 -50 -2 -62 -13 -15 -14 -18 -13 -35 5 -22 25
-15 45 19 48 15 1 35 6 44 10 29 14 152 6 169 -11 14 -13 18 -13 44 2 16 9 29
22 29 29 0 6 6 12 14 12 8 0 21 7 30 15 10 10 17 12 21 4 4 -5 -1 -17 -11 -25
-18 -15 -18 -15 -1 -10 10 3 34 6 54 6 26 0 43 8 69 34 31 31 34 39 34 92 0
33 -4 54 -8 48 -4 -6 -25 -21 -47 -32 -22 -11 -46 -30 -53 -41 -7 -12 -17 -21
-22 -21 -17 0 -11 36 9 54 15 14 18 29 16 74 -1 31 -1 42 2 24 4 -29 7 -31 31
-25 15 3 32 6 39 6 7 0 13 8 13 17 0 10 6 33 14 51 15 37 12 59 -9 59 -20 0
-27 17 -11 23 23 9 88 -32 138 -86 39 -43 47 -48 48 -31 0 38 -28 91 -67 124
-21 18 -31 29 -23 24 13 -7 13 -5 2 8 -7 9 -32 21 -57 27 -54 14 -65 14 -65 1
0 -5 15 -10 33 -11 17 0 41 -4 52 -9 17 -8 16 -9 -10 -11 -48 -3 -100 2 -105
12 -3 5 -32 11 -64 14 -68 7 -103 22 -88 37 18 18 -12 37 -59 40 -41 3 -44 2
-42 -22 1 -24 -2 -26 -52 -28 -30 -1 -56 2 -59 6 -7 13 -63 2 -77 -14 -12 -15
-5 -20 41 -27 21 -3 20 -4 -12 -11 -29 -6 -41 -4 -53 8 -9 9 -24 16 -33 16
-14 0 -14 2 -3 9 12 8 12 12 -2 25 -8 9 -18 29 -22 45 -8 37 -77 101 -108 101
-13 0 -32 -9 -41 -19 -17 -19 -17 -21 9 -47 26 -26 26 -28 10 -40 -17 -12 -16
-15 4 -55 17 -33 19 -44 10 -50 -7 -4 -16 -6 -20 -3 -4 2 -9 -7 -11 -21 -4
-21 -1 -25 18 -25 12 0 26 -4 29 -10 3 -5 19 -10 36 -10 16 0 29 -4 29 -10 0
-5 10 -10 23 -10 27 0 57 -32 57 -60 0 -25 -11 -25 -38 0 -21 20 -21 20 -32 1
-5 -11 -14 -37 -18 -58 -7 -30 -12 -37 -28 -35 -10 2 -35 5 -55 6 -43 4 -59
12 -59 31 0 8 19 16 52 20 32 5 61 16 76 30 l25 23 -32 17 c-24 12 -49 15 -99
11 -37 -2 -76 -5 -87 -6 -18 -1 -19 -1 -2 -11 9 -5 17 -14 17 -19 0 -15 -68
-12 -77 4 -23 38 -103 42 -103 4 0 -30 14 -50 68 -95 l50 -43 -5 40 c-3 22 -2
40 2 40 4 0 24 -17 44 -37 20 -21 57 -48 81 -60 l43 -21 -36 -7 c-37 -7 -48
-19 -24 -28 6 -2 9 -8 4 -12 -4 -5 -17 1 -30 13 -23 22 -47 29 -47 15 1 -12
34 -49 50 -56 8 -3 -4 -3 -27 0 -25 3 -43 2 -43 -4 0 -6 -13 -24 -30 -41 -24
-25 -28 -37 -24 -61 6 -26 3 -31 -19 -36 -14 -4 -33 -18 -42 -31 -17 -26 -91
-84 -108 -84 -6 0 -2 9 8 20 17 19 17 20 -11 30 -16 5 -37 15 -47 21 -29 16
-33 2 -9 -30 29 -40 31 -56 7 -56 -34 0 -23 -20 23 -42 2 0 -2 -10 -9 -22 -7
-11 -10 -23 -7 -27 8 -8 31 14 40 38 4 9 24 19 49 23 23 4 58 14 77 22 27 11
33 11 30 1 -3 -7 -17 -14 -31 -16 -32 -4 -32 -4 -11 -43 8 -17 13 -37 10 -44
-2 -7 1 -16 9 -19 8 -3 14 -13 13 -23 0 -10 3 -32 7 -49 5 -22 2 -34 -10 -44
-23 -19 -37 4 -24 38 5 14 7 33 3 44 -8 28 -52 16 -86 -23 -17 -20 -31 -28
-39 -23 -9 5 -10 2 -6 -10 4 -10 10 -36 14 -59 4 -26 16 -49 32 -63 l26 -23
-40 -41 c-35 -37 -37 -41 -16 -35 14 4 38 16 55 26 17 11 39 19 49 19 15 0 15
-6 -9 -52 l-26 -52 -19 23 -18 22 -6 -24 c-4 -14 -1 -35 5 -47 8 -14 8 -26 2
-32 -11 -11 -85 74 -96 110 -7 21 -43 48 -52 39 -2 -2 9 -21 26 -42 32 -41 39
-75 15 -75 -9 0 -15 9 -15 24 0 26 -33 56 -61 56 -9 0 -21 11 -27 25 -6 14
-18 25 -26 25 -18 0 -31 51 -16 60 8 5 9 14 3 26 -5 11 -8 73 -8 139 l0 120
72 -3 c69 -3 71 -2 66 19 -3 11 -19 25 -34 31 -16 5 -27 15 -26 21 1 6 -7 12
-18 14 -16 3 -17 2 -5 -6 17 -12 7 -26 -14 -18 -25 10 -49 55 -42 81 7 27 58
45 79 28 18 -14 57 -21 57 -11 0 20 -27 74 -44 88 -9 8 -34 17 -54 20 l-37 6
-3 100 c-2 86 0 102 15 115 27 23 28 43 2 35 -40 -13 -15 16 26 31 54 19 76
18 51 -1 -18 -13 -18 -16 -2 -40 9 -14 20 -25 25 -25 5 0 16 -3 25 -6 11 -4
16 0 16 14 0 32 17 36 54 13 18 -12 36 -21 40 -21 11 0 6 75 -7 90 -8 10 -32
16 -71 17 -32 1 -60 4 -63 7 -3 2 7 20 21 39 17 23 26 46 26 72 l0 37 -40 -36
c-22 -20 -44 -36 -49 -36 -5 0 -13 -10 -17 -22 -3 -13 -15 -31 -26 -42 -33
-31 -37 -2 -13 87 13 45 30 117 40 160 12 57 20 76 28 68 6 -6 19 -11 28 -11
17 0 17 -3 3 -35 -8 -19 -12 -35 -8 -35 26 0 134 94 134 116 0 7 -5 14 -12 16
-7 3 -5 13 7 32 25 38 9 52 -39 32 -21 -9 -45 -29 -57 -51 -12 -19 -25 -35
-29 -35 -24 0 -16 69 9 85 6 3 11 17 11 30 0 13 6 30 13 37 6 7 14 22 15 33 2
11 8 25 13 31 14 18 70 11 118 -15 29 -15 53 -21 71 -17 20 3 37 -2 61 -20 45
-34 110 -67 117 -60 10 11 -30 45 -61 52 -36 8 -97 51 -97 68 0 7 -9 22 -20
34 -11 12 -20 35 -20 52 0 37 -14 39 -36 4 -13 -18 -20 -22 -28 -14 -8 8 -6
14 7 21 9 6 15 14 12 20 -11 16 25 22 53 9 15 -8 33 -12 40 -11 8 1 20 -3 27
-9 11 -9 17 -5 30 19 8 17 25 33 38 36 90 20 112 23 134 14 13 -5 21 -14 18
-19 -14 -22 33 -75 82 -93 61 -22 66 -21 53 2 -24 46 -11 53 32 17 79 -68 72
-33 -10 50 -57 58 -109 86 -155 84 -54 -3 -67 -1 -67 14 0 18 -65 30 -113 21
-22 -4 -42 -17 -52 -31 -11 -16 -25 -24 -45 -24 -33 0 -40 17 -12 27 9 4 21
12 25 20 4 7 16 13 25 13 15 0 15 2 2 10 -17 11 -27 10 140 16 92 2 119 0 139
-13 22 -14 24 -14 18 2 -12 28 3 36 31 17 15 -10 39 -23 55 -30 25 -11 27 -10
27 15 0 27 -60 93 -85 93 -22 0 -87 42 -78 50 16 13 124 42 138 36 22 -8 18
-26 -5 -26 -23 0 -70 -20 -70 -31 0 -8 112 -29 157 -29 23 0 40 -10 67 -40 20
-23 41 -38 45 -35 5 3 11 0 13 -7 3 -8 11 -7 28 5 23 16 24 15 46 -14 12 -17
25 -53 29 -84 3 -30 10 -57 15 -60 13 -8 17 88 4 120 -6 17 -9 35 -7 42 2 7
-5 18 -16 25 -33 20 -24 30 12 13 l32 -16 -25 21 c-14 11 -40 27 -57 35 -18 8
-33 20 -33 27 -1 15 -77 65 -130 86 -74 29 -112 36 -131 24 -10 -7 -32 -9 -48
-6 -48 10 -95 -3 -106 -28 -7 -15 -22 -25 -45 -30 -19 -3 -45 -9 -57 -13 -25
-8 -28 -3 -13 26 7 11 26 21 50 25 39 6 57 23 23 20 -11 0 -17 5 -15 14 15 67
18 100 10 100 -23 0 -52 -25 -82 -73 -36 -56 -73 -94 -82 -84 -3 3 -7 17 -8
31 -2 14 -16 42 -31 62 l-28 36 33 -7 c26 -6 37 -2 60 20 l29 27 -26 24 c-32
29 -52 30 -86 4 -14 -11 -27 -20 -29 -20 -3 0 -3 24 0 53 4 54 2 61 -52 165
-10 17 -19 32 -20 32 -2 0 -8 -17 -15 -37z m-195 -1065 c16 -12 30 -23 32 -24
2 -1 -2 -10 -8 -21 -6 -10 -26 -58 -43 -107 -18 -48 -36 -89 -41 -90 -5 0 -15
17 -23 39 -7 22 -18 50 -25 63 -10 19 -9 28 6 50 9 15 26 46 37 70 11 23 24
42 28 42 5 0 21 -10 37 -22z m1003 -495 c16 -35 -5 -57 -57 -59 -20 0 -63 -8
-95 -17 -84 -25 -104 -23 -110 11 -5 25 10 59 21 47 3 -2 -1 -12 -9 -22 -12
-15 -12 -16 1 -7 19 12 90 12 90 0 0 -5 12 3 26 17 14 14 39 29 55 32 16 4 31
11 34 16 11 17 32 9 44 -18z m-491 -377 c-4 -17 -1 -23 9 -19 15 6 17 -6 4
-26 -5 -8 -18 -12 -29 -9 -22 6 -32 -8 -32 -43 0 -15 -7 -19 -39 -19 -22 0
-46 -3 -55 -6 -24 -9 -21 32 6 88 23 46 23 46 66 41 28 -4 42 -2 42 6 0 6 7
11 16 11 12 0 15 -7 12 -24z m-411 -592 c2 -5 -18 -10 -42 -10 -25 -1 -49 -4
-52 -8 -14 -13 41 -56 71 -56 23 0 27 -3 16 -10 -12 -7 -12 -10 4 -16 18 -7
18 -8 -2 -15 -14 -5 -20 -14 -16 -24 8 -21 30 -19 54 5 12 12 25 18 30 15 16
-10 11 -23 -10 -30 -11 -3 -20 -13 -20 -20 0 -24 -20 -27 -46 -6 -15 12 -34
21 -44 21 -34 0 -54 37 -58 109 -3 61 -1 70 15 73 23 5 96 -16 100 -28z m47
-231 c4 -3 3 -8 -2 -12 -6 -4 -12 -40 -13 -80 -2 -62 -5 -74 -21 -79 -10 -2
-18 -8 -18 -13 0 -5 -10 -7 -23 -4 -16 4 -30 -2 -51 -24 -15 -16 -25 -34 -22
-40 4 -6 3 -11 -3 -11 -31 0 -23 65 9 73 11 3 19 11 18 19 -2 8 8 14 23 16 17
2 29 11 32 23 3 10 2 17 -3 14 -4 -3 -10 5 -13 18 -2 12 -8 30 -12 40 -5 12
-3 17 8 17 8 0 20 6 26 14 9 11 6 15 -14 20 -42 11 -18 28 29 21 22 -4 45 -10
50 -12z"/>
<path d="M1774 4736 c-3 -9 -4 -23 0 -31 3 -9 -1 -35 -8 -58 -8 -23 -18 -73
-22 -112 -3 -38 -11 -72 -15 -76 -5 -3 -4 -21 1 -40 6 -19 8 -60 4 -93 -6 -52
-4 -58 10 -53 12 5 16 0 16 -23 0 -17 5 -30 10 -30 6 0 10 -18 10 -40 0 -56
17 -50 22 8 6 60 -9 552 -16 559 -3 3 -8 -2 -12 -11z"/>
<path d="M680 4370 c21 -17 23 -21 10 -30 -8 -5 -18 -10 -21 -10 -3 0 -11 -11
-17 -25 -18 -39 18 -56 117 -58 45 -1 81 1 81 4 0 12 -111 115 -137 126 -44
19 -62 15 -33 -7z"/>
<path d="M473 4325 c-18 -8 -33 -16 -33 -19 0 -2 16 -14 36 -25 27 -16 34 -26
28 -39 -4 -9 -9 -66 -10 -127 -2 -79 -7 -112 -17 -120 -8 -5 -14 -14 -15 -20
-1 -5 -9 -12 -18 -14 -13 -2 -15 1 -10 14 6 16 1 17 -41 11 -54 -7 -93 -29
-93 -52 0 -12 4 -14 13 -7 6 6 22 13 35 16 24 6 30 -11 10 -31 -9 -9 -7 -12 9
-12 12 0 25 5 28 10 3 6 16 10 29 10 12 0 26 4 31 9 6 5 43 11 83 14 65 4 74
2 83 -15 10 -19 12 -18 33 13 45 67 39 139 -11 139 -20 0 -22 3 -13 19 14 27
13 67 -4 83 -7 8 -17 25 -21 38 -4 14 -12 30 -17 37 -5 7 -7 17 -4 22 6 10
-53 61 -70 61 -5 -1 -24 -7 -41 -15z"/>
<path d="M3500 3114 c0 -9 9 -141 20 -293 11 -152 22 -296 23 -319 3 -43 4
-44 56 -63 30 -10 56 -20 58 -23 3 -2 -19 -9 -49 -15 l-53 -10 67 3 c56 3 73
0 105 -20 41 -25 40 -30 -4 -14 l-28 10 25 -20 c14 -11 32 -20 40 -20 8 0 41
-9 74 -20 32 -11 61 -18 65 -15 9 5 92 -15 106 -25 6 -5 30 -13 55 -20 25 -6
62 -22 82 -36 45 -29 63 -31 53 -6 -18 44 -15 43 20 -7 25 -35 40 -49 45 -41
5 8 14 4 29 -16 38 -49 22 -12 -20 45 l-42 56 47 -45 c25 -24 46 -48 46 -52 0
-4 20 -35 45 -69 25 -34 45 -71 44 -83 0 -11 -3 -15 -6 -8 -3 9 -10 7 -24 -9
-11 -13 -25 -19 -34 -15 -9 3 -18 -1 -22 -9 -4 -12 -9 -13 -19 -4 -10 8 -17 7
-29 -5 -16 -15 -44 -12 -57 8 -4 6 -8 -1 -8 -16 0 -27 -12 -43 -24 -31 -10 11
-46 11 -46 0 0 -5 -8 -3 -17 4 -11 10 -14 10 -9 2 5 -9 1 -13 -11 -13 -11 0
-24 -5 -29 -10 -7 -7 -20 -4 -39 12 l-28 22 6 -31 6 -31 -27 25 c-22 21 -28
22 -30 9 -5 -24 -22 -19 -23 7 0 12 -9 40 -20 62 -19 40 -18 29 3 -48 9 -33 8
-40 -8 -52 -16 -11 -20 -11 -27 1 -11 18 -27 18 -27 -1 0 -22 -16 -18 -38 10
-11 14 -23 25 -27 25 -4 0 4 -15 19 -34 27 -36 33 -52 16 -41 -5 3 -10 1 -10
-5 0 -7 -6 -10 -12 -7 -7 2 -18 -3 -24 -12 -10 -13 -15 -10 -34 19 -20 31 -21
27 -5 -13 7 -17 -27 -19 -37 -3 -5 7 -8 3 -8 -9 0 -18 -1 -18 -16 3 -8 12 -20
20 -25 17 -5 -4 -9 1 -9 10 0 16 -37 95 -45 95 -2 0 5 -20 16 -45 26 -60 23
-101 -8 -97 -14 2 -23 -2 -23 -10 -1 -8 -5 -7 -14 5 -8 10 -16 13 -18 7 -3
-11 -58 9 -58 21 0 15 -32 81 -36 76 -3 -3 2 -19 11 -37 9 -17 15 -46 13 -63
l-3 -32 -25 25 c-14 14 -22 21 -17 16 4 -6 7 -26 6 -46 0 -34 -1 -34 -11 -10
-10 24 -10 24 -18 5 -7 -16 -9 -11 -10 20 -1 34 -3 37 -10 18 -5 -13 -14 -23
-20 -23 -5 0 -10 -9 -10 -20 0 -29 -17 -24 -25 7 -10 43 -35 97 -41 90 -3 -3
2 -19 10 -36 18 -34 30 -111 18 -111 -4 0 -13 5 -20 12 -7 7 -12 8 -12 4 0 -5
-11 -1 -25 8 -23 15 -25 15 -25 0 0 -15 -2 -15 -21 2 -22 19 -22 19 -15 -6 7
-24 6 -24 -8 -6 -16 20 -16 20 -17 0 -1 -12 -6 -6 -13 16 -17 53 -116 248
-132 261 -11 9 -11 15 -3 25 7 9 8 14 1 14 -6 0 -12 -6 -15 -12 -3 -7 -12 3
-20 22 -9 19 -32 51 -53 70 l-38 35 35 -44 c19 -25 44 -61 56 -80 38 -63 113
-199 113 -205 0 -3 -9 -6 -20 -6 -13 0 -20 7 -20 20 0 11 -5 20 -11 20 -7 0
-9 -11 -5 -30 3 -17 2 -29 -3 -26 -5 3 -11 0 -14 -8 -8 -19 -75 -30 -93 -15
-10 8 -12 15 -5 22 7 7 1 18 -17 34 -15 12 -21 23 -14 23 20 0 14 14 -24 52
-19 21 -33 42 -30 47 4 5 0 13 -7 18 -8 4 -30 33 -49 63 -19 30 -48 66 -64 80
-31 28 -33 32 44 -78 23 -34 42 -66 42 -71 0 -11 -9 -14 -42 -14 -10 0 -18 -3
-18 -8 0 -12 -35 -20 -53 -13 -9 3 -37 34 -61 69 -25 34 -54 65 -66 68 -15 4
-8 -8 26 -46 26 -29 51 -61 56 -73 19 -41 44 -47 109 -24 33 12 62 20 64 18 1
-1 14 -25 27 -53 14 -27 34 -67 46 -88 20 -35 21 -40 7 -54 -12 -12 -19 -13
-28 -4 -8 8 -8 11 1 11 7 0 12 7 12 15 0 8 -4 15 -10 15 -10 0 -14 -21 -11
-47 1 -7 -6 -13 -16 -13 -15 0 -18 9 -20 48 -3 95 -8 122 -25 139 -10 9 -21
13 -25 9 -5 -5 2 -15 14 -23 18 -12 20 -19 12 -45 -5 -18 -5 -38 1 -49 6 -9 8
-24 5 -32 -3 -7 -1 -25 4 -39 9 -23 7 -26 -15 -24 -25 1 -34 14 -41 55 -2 13
-11 30 -19 38 -7 8 -14 22 -14 31 0 21 -27 62 -41 62 -5 0 1 -21 14 -47 14
-27 30 -66 37 -88 7 -22 16 -44 20 -50 14 -21 42 -126 36 -140 -10 -27 -23
-16 -30 25 -3 23 -13 43 -21 47 -10 3 -13 12 -9 25 4 14 0 21 -15 25 -15 4
-19 9 -12 17 12 15 3 56 -13 56 -6 0 -6 4 2 9 11 7 11 11 -3 22 -41 35 -52 52
-48 70 3 11 0 19 -6 19 -7 0 -17 13 -22 30 -6 16 -19 32 -30 35 -10 4 -19 11
-19 16 0 6 -7 17 -15 26 -8 8 -12 19 -9 24 3 6 -3 13 -15 16 -12 3 -21 10 -21
15 0 6 -11 8 -25 6 -18 -4 -25 -1 -25 10 0 13 -3 13 -12 4 -16 -16 -41 -16
-31 1 4 7 -3 5 -18 -4 -23 -16 -99 -35 -126 -32 -7 0 -13 -3 -13 -8 0 -5 -7
-9 -15 -9 -8 0 -15 -5 -15 -11 0 -8 11 -9 33 -5 l32 6 -25 -20 c-27 -21 -55
-26 -65 -10 -4 6 -11 8 -16 5 -5 -4 -9 -1 -9 4 0 6 -5 11 -11 11 -5 0 -7 -4
-4 -10 4 -6 -6 -10 -23 -10 -17 0 -32 6 -35 14 -4 10 -1 13 9 9 10 -3 14 2 14
17 0 31 37 60 76 60 24 0 34 5 39 20 4 11 24 41 46 66 21 25 39 49 39 53 0 4
10 13 23 19 22 10 22 11 1 11 -12 1 -29 -10 -40 -23 -10 -14 -20 -23 -24 -21
-3 2 -14 -3 -25 -11 -18 -13 -18 -14 6 -14 l24 0 -29 -25 c-16 -13 -37 -27
-47 -30 -26 -9 -24 -24 3 -17 14 3 19 1 14 -6 -11 -18 -58 -11 -51 7 4 11 0 9
-15 -4 -11 -10 -23 -16 -26 -13 -3 3 12 20 33 38 l38 32 -43 -23 c-23 -13 -50
-31 -59 -41 -15 -17 -15 -18 5 -18 12 0 22 -4 22 -10 0 -5 -7 -10 -16 -10 -24
0 -47 -28 -41 -50 6 -24 -11 -38 -19 -16 -3 8 -12 12 -20 9 -8 -3 -11 -9 -8
-14 3 -5 0 -9 -5 -9 -6 0 -11 5 -11 10 0 16 -18 12 -39 -9 -10 -10 -24 -20
-32 -23 -8 -3 -10 -11 -6 -23 7 -17 8 -17 22 1 14 18 14 18 15 -3 0 -23 23
-32 35 -13 3 6 17 7 31 4 20 -5 23 -3 18 12 -5 18 -5 18 9 2 8 -10 26 -18 41
-18 16 0 25 -4 21 -10 -4 -6 -10 -8 -15 -5 -5 3 -12 0 -15 -6 -18 -28 98 -99
160 -99 14 0 12 -6 -9 -31 -29 -34 -28 -29 -30 -121 -1 -57 2 -68 17 -72 15
-4 18 -16 17 -83 -1 -114 -1 -115 16 -109 19 7 18 -1 -7 -32 -19 -24 -19 -27
-4 -30 10 -2 14 -10 11 -19 -3 -8 -6 -17 -6 -19 0 -3 -6 -2 -12 2 -7 4 -6 -1
3 -12 9 -10 14 -25 12 -32 -3 -8 1 -10 11 -6 26 10 15 -37 -14 -62 -20 -18
-22 -24 -10 -27 8 -3 58 -19 110 -36 118 -39 235 -84 197 -76 -18 4 -33 0 -42
-9 -17 -17 -16 -17 42 -36 34 -10 41 -16 32 -27 -7 -8 -8 -13 -1 -13 5 0 17
11 26 25 26 39 153 96 220 98 31 1 56 1 56 0 0 -1 -9 -18 -19 -37 -11 -19 -17
-36 -14 -39 3 -3 -9 -13 -26 -22 -38 -19 -39 -15 -2 39 l29 42 -41 1 c-38 2
-127 -28 -127 -42 0 -3 5 -3 10 0 17 11 11 -7 -7 -21 -23 -17 -36 -18 -27 -2
4 7 3 9 -1 5 -15 -14 -15 -39 1 -33 8 3 14 1 14 -4 0 -6 -13 -10 -30 -10 -16
0 -30 -4 -30 -10 0 -5 5 -10 10 -10 6 0 10 -8 10 -18 0 -26 46 -41 140 -44
l84 -3 7 30 c5 24 7 26 13 13 4 -9 5 -22 1 -28 -3 -5 1 -10 9 -10 9 0 16 5 16
10 0 6 7 10 15 10 8 0 15 5 15 10 0 6 5 10 11 10 6 0 9 -7 7 -16 -3 -17 -73
-44 -114 -44 -11 0 -29 -10 -40 -22 -17 -19 -17 -21 -2 -15 11 4 25 -1 36 -13
16 -17 23 -18 53 -8 19 6 48 18 64 26 17 8 40 12 50 10 15 -4 12 -7 -15 -14
-25 -7 -36 -17 -38 -33 -2 -14 -9 -21 -20 -19 -24 4 -42 -10 -42 -32 0 -17 6
-19 50 -16 28 2 50 1 50 -4 0 -10 -48 -22 -60 -15 -4 3 -41 0 -82 -6 -40 -6
-86 -12 -103 -15 -16 -2 -37 -5 -46 -6 -9 -1 -15 -8 -12 -15 7 -17 -12 -17
-26 1 -10 12 -16 12 -38 1 -15 -8 -45 -12 -75 -9 -45 4 -49 3 -43 -15 5 -18 1
-19 -67 -18 -40 0 -82 -3 -92 -8 -16 -7 -18 -5 -13 9 6 16 3 18 -22 14 -20 -3
-32 0 -36 9 -2 8 -10 11 -15 8 -13 -8 -42 14 -35 25 3 5 1 11 -5 15 -6 3 -13
-1 -16 -9 -3 -9 -14 -16 -24 -16 -10 0 -20 -4 -22 -10 -5 -15 -115 -29 -128
-16 -8 8 -12 4 -17 -12 -3 -13 -11 -21 -17 -19 -17 6 -15 46 3 57 11 7 3 8
-29 5 -24 -3 -49 -10 -54 -15 -7 -7 0 -8 22 -4 41 8 42 -7 1 -25 -27 -12 -33
-12 -40 0 -5 8 -9 17 -9 21 0 10 -33 -3 -42 -16 -4 -6 -11 -6 -21 2 -11 10
-17 9 -27 -3 -14 -17 -60 -20 -60 -4 0 6 -9 8 -20 4 -15 -5 -18 -3 -14 9 9 23
-18 20 -39 -4 -10 -12 -23 -17 -33 -13 -13 5 -15 2 -10 -14 8 -24 -19 -40 -38
-24 -10 8 -71 9 -71 1 0 -1 -18 -3 -40 -5 -29 -2 -34 -1 -20 5 22 9 13 13 -22
11 -11 -1 -24 3 -28 9 -3 5 -10 8 -14 6 -4 -3 -25 -1 -47 5 -21 5 -68 12 -103
15 -35 3 -74 11 -85 18 -20 12 -79 20 -154 20 -23 -1 -31 3 -28 13 5 11 -19
19 -47 14 -4 -1 -10 6 -13 14 -3 8 -10 13 -14 10 -5 -3 -37 2 -71 12 -59 16
-62 16 -74 -1 -10 -13 -18 -15 -31 -8 -13 7 -29 2 -66 -20 -26 -16 -45 -34
-42 -40 3 -5 -2 -8 -12 -6 -12 2 -20 -5 -25 -22 -10 -34 -11 -90 -1 -89 24 4
23 -3 -2 -16 -16 -9 -55 -15 -93 -15 l-65 0 5 33 c17 98 18 117 9 117 -6 0
-13 -22 -17 -50 -6 -42 -9 -48 -21 -36 -13 13 -21 46 -29 121 -4 39 24 174 41
200 18 26 18 41 0 25 -49 -40 -70 -267 -32 -342 10 -21 22 -35 27 -32 5 3 9 0
9 -5 0 -6 -7 -11 -15 -11 -8 0 -15 -4 -15 -9 0 -5 -43 -9 -95 -9 -92 -1 -95 0
-95 22 0 13 5 37 11 55 7 21 8 35 1 44 -22 27 -42 437 -28 570 8 68 7 80 -9
97 -23 25 -35 25 -35 1 0 -22 -20 -40 -21 -19 0 7 -9 -12 -20 -42 -11 -30 -20
-59 -20 -65 0 -5 3 -147 6 -315 5 -320 9 -342 51 -326 14 5 16 15 11 66 -4 37
-3 60 3 60 6 0 10 -27 10 -59 0 -34 5 -63 11 -67 19 -12 -12 -22 -66 -22 -27
0 -66 -1 -86 -1 l-36 -1 16 -47 c9 -27 24 -60 34 -75 24 -35 15 -49 -23 -38
l-30 9 0 -165 0 -164 2729 0 c2174 0 2730 3 2734 13 4 9 6 9 6 0 1 -10 261
-13 1266 -13 l1265 0 0 385 c0 338 -2 384 -15 379 -8 -4 -15 -1 -15 4 0 6 7
17 15 26 12 11 15 40 15 125 0 99 -2 111 -17 111 -10 0 -136 -12 -280 -26
l-263 -27 -90 38 c-50 21 -89 39 -87 41 2 2 27 -3 57 -11 30 -8 106 -20 170
-26 96 -10 140 -9 268 5 84 8 161 20 172 26 10 5 30 10 44 10 l25 0 1 685 0
684 -33 5 c-95 15 -347 46 -371 46 -15 0 -37 6 -49 14 -34 22 -141 39 -202 33
-50 -5 -55 -4 -55 14 0 18 -1 19 -25 3 -29 -19 -85 -13 -105 11 -9 11 -16 12
-26 4 -7 -6 -18 -8 -25 -4 -8 6 -8 2 0 -14 11 -20 9 -21 -16 -21 -49 2 -163
-11 -189 -20 -14 -6 -43 -10 -65 -10 -28 0 -39 -4 -39 -15 0 -25 -36 -36 -95
-29 -47 6 -55 4 -55 -10 0 -12 4 -15 15 -9 18 11 85 4 85 -7 0 -5 -23 -8 -52
-7 -31 0 -53 -4 -56 -11 -2 -8 -11 -8 -29 -1 -18 7 -28 6 -33 -1 -5 -8 -12 -7
-22 4 -13 13 -19 13 -43 0 -16 -8 -31 -11 -34 -7 -9 12 -35 9 -44 -5 -11 -17
1 -68 20 -83 8 -8 26 -37 39 -66 13 -28 29 -55 34 -58 15 -9 12 -25 -5 -25 -9
0 -18 7 -21 15 -4 8 -14 15 -24 15 -25 0 -41 23 -44 62 -6 78 -63 127 -136
116 -25 -4 -27 -2 -19 13 7 14 4 19 -13 25 -25 7 -53 -21 -70 -69 -6 -15 -12
-26 -14 -24 -3 2 0 17 7 33 21 55 21 74 0 74 -10 0 -24 -7 -31 -15 -7 -8 -16
-15 -21 -15 -14 0 -10 17 9 36 16 17 16 17 -3 10 -11 -5 -44 -14 -73 -20 -30
-6 -50 -14 -46 -19 4 -4 0 -7 -9 -7 -35 0 -25 20 13 26 57 9 101 47 98 84 -1
16 -6 27 -10 24 -4 -3 -5 -10 -3 -17 5 -15 -12 -38 -45 -60 -32 -20 -220 -36
-220 -18 0 6 -9 11 -21 11 -11 0 -17 5 -14 10 3 6 15 10 25 10 15 0 20 10 26
45 6 41 9 45 28 39 35 -11 41 -10 37 6 -3 8 -5 25 -5 38 -1 12 -6 22 -12 22
-13 0 -25 32 -27 77 -2 32 3 33 36 4 16 -13 19 -13 27 -1 15 23 18 126 6 190
-4 19 -8 51 -10 70 -3 23 -13 41 -32 54 -15 11 -41 34 -58 50 -21 20 -31 25
-34 16 -3 -9 -9 -7 -21 8 -9 11 -29 24 -46 27 -24 5 -27 4 -15 -5 12 -9 9 -11
-18 -7 -28 3 -35 -1 -52 -30 -14 -25 -25 -32 -44 -31 -15 1 -27 10 -30 21 -3
14 -1 16 9 7 14 -12 48 -3 39 11 -3 5 3 6 12 2 13 -5 15 -3 9 7 -5 8 -2 18 9
25 14 11 6 14 -49 20 -52 5 -68 4 -81 -9 -8 -9 -27 -19 -41 -22 -18 -5 -21 -9
-11 -15 7 -5 21 -6 30 -3 15 4 16 2 9 -18 -7 -19 -2 -31 26 -65 28 -34 32 -44
20 -49 -10 -3 -32 13 -62 45 -26 28 -52 51 -57 51 -6 0 13 -23 41 -51 69 -68
66 -92 -4 -35 -67 55 -80 62 -130 69 l-40 6 35 -12 c50 -17 114 -53 129 -71
18 -21 8 -20 -74 9 -85 30 -119 31 -186 5 -42 -17 -54 -18 -67 -8 -13 11 -15
10 -9 -4 8 -21 -10 -35 -26 -19 -16 16 -27 14 -27 -5 0 -8 -22 -39 -50 -67
-27 -28 -50 -48 -50 -43 0 4 -16 -12 -36 -36 -87 -104 -121 -143 -158 -177
-21 -20 -56 -55 -78 -78 -25 -26 -45 -40 -55 -36 -12 5 -14 1 -9 -15 5 -15 2
-22 -11 -25 -16 -4 -16 -5 2 -12 11 -5 52 -32 92 -61 39 -29 74 -51 77 -48 3
2 4 1 1 -3 -5 -6 78 -95 205 -221 30 -31 44 -47 30 -36 -14 10 -81 75 -150
145 -69 69 -154 145 -189 169 -65 43 -177 93 -196 87 -5 -2 13 -11 42 -21 70
-23 83 -40 32 -43 -24 -2 -39 2 -39 9 0 11 -22 -12 -48 -49 -11 -15 -11 -15
-1 5 9 21 8 23 -8 18 -16 -5 -188 -13 -380 -17 -40 -1 -70 -6 -67 -10 3 -5 0
-9 -5 -9 -6 0 -11 5 -11 10 0 6 -9 10 -20 10 -11 0 -20 -4 -20 -8 0 -5 -37 -7
-82 -5 -58 3 -83 1 -89 -8 -5 -9 -10 -5 -14 12 -3 14 -5 29 -4 35 2 5 0 41 -4
79 -4 39 -14 176 -22 305 -15 231 -22 296 -32 286 -3 -2 -17 0 -32 6 -36 14
-193 58 -208 58 -7 0 -13 -7 -13 -16z m2130 -178 c0 -14 13 -37 29 -53 34 -35
54 -87 34 -89 -5 0 -24 -7 -43 -16 l-35 -15 37 -1 c33 0 41 5 78 55 50 65 65
64 21 -3 -18 -25 -30 -49 -27 -52 6 -6 56 44 55 55 0 4 4 9 10 11 6 2 11 -5
11 -16 0 -16 6 -20 35 -19 19 1 35 5 35 11 0 5 3 7 6 4 8 -9 -23 -65 -39 -71
-8 -3 -20 0 -26 6 -8 8 -11 8 -11 -1 0 -7 -5 -12 -11 -12 -5 0 -7 5 -3 12 5 7
3 8 -5 4 -7 -5 -10 -15 -7 -23 3 -8 1 -11 -5 -8 -5 4 -7 15 -4 26 5 14 3 17
-9 13 -9 -3 -13 -10 -10 -15 3 -5 1 -9 -4 -9 -6 0 -13 7 -16 16 -12 30 -36 -4
-36 -51 0 -35 4 -44 25 -53 37 -17 38 -17 65 33 14 25 31 45 38 45 14 0 11 -7
-21 -53 -10 -15 -16 -34 -13 -42 3 -8 -3 -34 -13 -58 l-19 -44 -62 4 c-38 3
-66 0 -69 -6 -14 -23 -65 -23 -94 -1 -15 12 -27 25 -27 29 0 4 24 6 53 3 41
-3 56 0 66 12 10 12 11 20 4 27 -11 11 -60 22 -100 23 -13 1 -23 6 -23 12 0
13 -30 28 -38 20 -8 -9 8 -37 18 -31 6 3 7 -1 4 -9 -3 -9 -12 -16 -20 -16 -8
0 -14 -8 -15 -17 0 -14 -3 -13 -11 5 -12 24 -28 30 -28 10 0 -9 -3 -9 -12 0
-9 9 -14 7 -24 -6 -12 -16 -13 -16 -14 3 -1 18 -2 17 -15 -5 -8 -14 -14 -20
-15 -14 0 6 -7 11 -15 11 -18 0 -18 -2 -3 -30 10 -20 10 -21 -5 -9 -9 8 -19
22 -22 33 -4 10 -10 19 -15 19 -5 0 -7 -7 -4 -15 7 -17 -11 -21 -21 -5 -10 16
-22 12 -28 -11 -5 -17 -11 -19 -40 -14 -22 4 -37 3 -42 -4 -4 -8 -37 -11 -90
-10 l-83 2 14 40 c8 22 14 47 14 56 0 23 83 144 139 202 l47 49 88 0 c92 0
155 -19 157 -46 5 -52 27 -79 67 -82 64 -4 102 7 102 29 0 12 10 23 25 29 45
17 15 48 -52 53 -13 0 -23 3 -23 5 0 4 23 34 61 80 16 19 29 14 29 -12z
m-1857 -246 c7 -107 11 -205 8 -217 -6 -21 -6 -21 -30 -2 -19 16 -26 37 -38
112 -19 123 -19 234 1 256 9 10 19 33 23 51 12 62 22 6 36 -200z m603 -352
c-13 22 21 13 56 -15 21 -18 28 -21 18 -8 -14 19 -14 19 3 6 9 -8 15 -16 13
-19 -3 -3 4 -17 15 -33 23 -32 89 -192 82 -199 -2 -2 -7 0 -11 6 -8 13 -51 37
-71 40 -8 2 -18 8 -22 16 -4 7 -11 9 -16 5 -4 -5 -1 -12 6 -16 7 -5 11 -15 9
-22 -3 -9 -11 -2 -21 18 -19 36 -21 47 -8 38 5 -3 12 -1 15 3 3 5 -6 14 -20
21 -14 6 -24 16 -22 23 2 6 -13 30 -34 52 -35 39 -52 76 -26 60 7 -4 8 -3 4 4
-12 20 4 35 22 20 12 -10 14 -10 8 0z m836 -249 c29 -15 43 -18 51 -10 15 15
120 14 138 -1 9 -7 30 -38 49 -70 21 -36 47 -64 72 -78 32 -18 36 -24 28 -40
-14 -26 -39 -38 -64 -32 -20 5 -155 97 -166 113 -3 4 -36 28 -75 53 -38 25
-75 50 -81 55 -7 6 -14 7 -18 4 -3 -3 -13 -2 -23 1 -15 6 -15 8 -3 16 23 15
47 12 92 -11z m491 -235 c34 -9 78 -22 96 -30 19 -8 58 -16 85 -18 28 -2 58
-7 66 -10 27 -10 125 -24 132 -19 5 2 8 15 8 27 0 13 6 29 14 35 21 18 133 33
192 25 44 -5 51 -9 47 -25 -3 -10 -9 -17 -13 -14 -4 2 -13 -13 -20 -35 -7 -22
-22 -49 -33 -61 -16 -17 -17 -23 -6 -30 12 -8 12 -11 -1 -19 -11 -7 -18 -5
-26 5 -16 22 -26 18 -19 -6 6 -19 4 -20 -41 -15 -26 4 -52 1 -60 -4 -8 -8 -50
-2 -140 19 -113 26 -125 27 -104 11 l25 -19 -26 4 c-32 6 -59 -19 -33 -29 10
-4 21 -2 24 5 9 14 20 12 43 -8 9 -9 17 -13 17 -9 0 3 17 -2 38 -12 20 -11 49
-22 64 -26 26 -6 27 -7 10 -25 -19 -20 -36 -17 -28 5 4 10 -3 14 -27 14 -18 0
-41 6 -52 14 -28 18 -90 27 -103 14 -8 -8 -15 -8 -25 1 -8 6 -22 8 -31 5 -13
-5 -17 -2 -14 11 2 10 -4 20 -12 22 -12 4 -12 2 -2 -5 11 -7 11 -11 0 -19 -15
-12 -80 -5 -72 8 3 5 1 9 -5 9 -5 0 -11 -5 -13 -11 -5 -14 -31 -2 -46 21 -7
11 -9 19 -5 18 5 0 17 2 28 6 94 35 95 35 109 20 8 -7 16 -19 18 -24 4 -14 58
-21 58 -8 0 5 -8 8 -17 6 -10 -1 -24 1 -30 5 -18 11 -16 30 2 23 8 -3 15 -1
15 4 0 6 -13 10 -29 10 -16 0 -37 7 -45 16 -9 8 -26 17 -38 19 -26 5 -35 14
-40 40 -2 11 -10 20 -18 20 -8 0 -15 6 -14 13 1 6 2 21 3 33 1 15 6 19 16 15
9 -3 44 -13 78 -22z m-2550 -127 c9 -30 17 -65 16 -78 -1 -19 -4 -15 -15 16
l-13 40 1 -37 c2 -21 -3 -43 -10 -50 -9 -9 -12 -7 -12 13 l-1 24 -17 -27 c-9
-16 -20 -28 -24 -28 -4 0 -9 12 -11 28 -2 17 -5 8 -6 -23 l-2 -50 -19 40 c-10
22 -19 34 -19 27 -1 -7 -5 -10 -11 -7 -5 3 -10 1 -10 -5 0 -6 -4 -8 -10 -5 -5
3 -10 1 -10 -5 0 -6 -4 -8 -10 -5 -5 3 -10 1 -10 -4 0 -6 -11 -11 -24 -11 -14
0 -28 -4 -31 -10 -3 -5 -15 -10 -25 -10 -10 0 -20 -6 -23 -12 -3 -8 -7 -6 -12
7 -9 22 -37 86 -42 96 -2 3 18 12 44 20 26 7 59 19 72 25 30 16 39 11 58 -33
8 -19 17 -33 19 -30 8 8 -5 45 -22 62 -14 13 -10 17 31 35 60 26 62 26 85 -12
l20 -33 0 26 c0 16 -7 30 -17 33 -14 6 -14 8 3 21 30 23 38 18 57 -38z m807
18 c19 -4 44 -6 55 -6 11 1 29 -3 40 -9 35 -16 115 -40 135 -40 10 0 31 -11
47 -24 15 -13 32 -24 37 -24 9 -1 31 -35 42 -64 3 -10 11 -19 18 -20 6 0 16
-2 21 -2 6 -1 19 -7 30 -13 28 -15 107 -24 99 -11 -4 6 2 8 12 6 27 -6 99 31
86 44 -7 7 -17 3 -31 -11 -17 -17 -25 -19 -42 -11 -16 9 -18 14 -8 26 6 8 19
14 28 14 12 0 13 -2 3 -9 -11 -7 -11 -9 2 -14 14 -6 21 4 17 26 -3 19 27 4 42
-23 18 -30 18 -30 -4 -30 -12 0 -19 -3 -16 -6 12 -13 56 -12 93 1 32 11 35 13
17 19 -12 4 -26 5 -33 4 -7 -2 -15 3 -18 11 -3 10 0 12 12 8 9 -4 16 -2 16 3
0 6 7 10 16 10 8 0 13 -4 10 -9 -13 -20 20 -16 43 5 31 29 88 40 231 47 50 2
82 -1 95 -10 11 -7 24 -13 30 -13 5 0 3 5 -5 10 -12 7 -11 9 5 10 11 1 40 2
65 4 47 3 80 -8 80 -25 0 -6 -7 -6 -19 1 -28 15 -35 12 -20 -7 8 -9 10 -14 4
-11 -35 18 -95 31 -95 20 0 -2 8 -14 19 -27 13 -17 21 -21 29 -13 5 5 15 7 21
4 13 -8 14 -16 2 -35 -7 -11 -12 -10 -29 5 -23 20 -78 29 -87 14 -3 -6 -2 -10
3 -10 6 0 13 -7 16 -16 4 -12 2 -15 -9 -11 -8 4 -17 2 -20 -3 -3 -5 -12 -7
-21 -3 -8 3 -14 2 -13 -3 4 -26 -2 -34 -18 -26 -10 5 -25 7 -33 4 -12 -4 -13
-3 -2 10 10 13 9 16 -10 21 -27 7 -43 -6 -35 -27 5 -13 40 -22 70 -17 12 2 8
-8 -13 -29 -11 -11 -20 -18 -20 -15 0 25 -41 55 -72 54 -12 -1 -36 2 -52 6
-21 6 -27 5 -22 -4 4 -6 12 -9 17 -6 5 4 9 1 9 -5 0 -6 5 -8 10 -5 11 7 26
-22 16 -32 -3 -3 -13 0 -21 7 -11 9 -19 10 -27 2 -12 -12 -38 -5 -38 10 0 5 5
6 10 3 6 -3 10 -1 10 4 0 14 -27 14 -36 0 -3 -6 -1 -16 5 -22 6 -6 11 -14 11
-18 0 -12 -54 -3 -58 10 -2 6 3 9 12 5 9 -3 16 -2 16 4 0 5 -14 12 -30 14 -21
3 -27 1 -20 -6 13 -13 13 -46 0 -46 -5 0 -7 6 -4 14 3 9 -1 13 -13 13 -12 -1
-17 4 -15 14 1 11 -8 21 -28 27 -25 9 -30 8 -30 -4 0 -8 5 -12 10 -9 6 3 10 0
10 -7 0 -7 14 -26 32 -42 l33 -28 -50 27 c-59 33 -74 45 -55 45 7 0 10 3 6 7
-4 4 -18 -6 -31 -21 -22 -26 -26 -27 -40 -12 -13 12 -20 13 -35 4 -19 -12 -18
-28 1 -28 6 0 20 -10 31 -22 11 -13 17 -18 14 -12 -3 7 3 14 14 17 17 4 19 1
14 -19 -7 -29 20 -66 42 -57 13 5 19 -8 15 -30 -1 -5 2 -6 7 -3 5 3 22 -9 38
-27 40 -43 121 -110 145 -119 10 -4 19 -12 19 -18 0 -5 3 -9 8 -8 8 1 38 -9
62 -21 8 -5 24 -5 35 0 11 4 16 8 10 8 -10 1 15 21 27 21 4 0 5 -9 3 -20 -5
-26 44 -85 58 -71 8 8 7 15 -1 23 -9 9 -12 9 -12 -1 0 -11 -3 -11 -15 -1 -17
14 -21 55 -5 45 6 -4 17 -1 25 5 12 10 15 10 15 0 0 -9 10 -10 34 -6 19 4 37
2 41 -3 3 -6 12 -8 21 -4 12 4 12 8 2 22 -11 14 -11 14 3 3 22 -17 57 -23 64
-11 10 15 63 10 73 -8 5 -9 16 -14 23 -11 8 3 16 5 19 5 3 0 23 9 45 20 42 22
46 23 71 23 8 0 13 4 10 9 -11 17 6 40 37 51 46 17 77 22 77 12 0 -14 48 -12
54 3 6 17 35 10 51 -12 11 -15 45 -8 45 8 0 5 5 9 10 9 6 0 20 9 32 20 22 20
44 27 34 11 -4 -5 3 -7 14 -4 12 3 20 0 20 -6 0 -7 5 -9 12 -5 6 4 50 9 97 11
47 2 124 6 170 8 53 2 79 0 70 -6 -10 -7 -8 -9 11 -8 14 0 47 -2 73 -5 30 -4
46 -3 42 3 -3 6 14 9 45 8 42 -2 50 -5 47 -19 -3 -9 2 -19 10 -22 8 -3 13 0
11 7 -2 6 0 12 3 12 3 0 13 6 21 13 13 10 17 10 21 0 4 -8 8 -9 14 -3 11 14
33 17 33 5 0 -5 7 -7 15 -4 10 4 15 0 15 -11 0 -9 -5 -13 -11 -10 -5 4 -22 4
-35 1 -22 -6 -24 -9 -12 -23 12 -15 11 -15 -9 -4 -23 12 -29 6 -24 -23 1 -5
-4 -6 -12 -3 -7 2 -22 -2 -32 -10 -19 -14 -19 -15 5 -9 21 6 22 5 7 -4 -14 -9
-22 -9 -33 0 -11 10 -14 9 -14 -4 0 -21 -9 -20 -26 2 -9 11 -13 13 -14 4 0 -8
-5 -10 -12 -6 -7 4 -10 4 -6 -1 12 -13 -12 -48 -25 -37 -13 11 -41 -11 -30
-22 11 -10 10 -46 0 -39 -18 11 -26 -20 -9 -34 9 -7 12 -13 6 -13 -21 0 -39
29 -26 42 19 19 14 30 -7 19 -16 -9 -18 -8 -14 9 5 19 4 19 -35 3 -37 -14 -40
-17 -30 -39 15 -32 7 -37 -36 -26 -21 6 -36 7 -36 1 0 -15 -37 -10 -50 7 -14
16 -50 38 -50 30 0 -10 55 -56 67 -56 7 0 18 -18 24 -40 11 -35 14 -38 32 -29
14 8 23 7 34 -3 12 -13 10 -14 -17 -10 -16 2 -30 0 -30 -6 0 -18 -38 -1 -64
29 -14 16 -26 33 -26 39 0 5 -5 10 -11 10 -6 0 -8 7 -5 16 3 9 2 12 -5 9 -6
-4 -8 -14 -4 -22 5 -13 -2 -15 -40 -9 -39 5 -44 4 -32 -8 8 -8 25 -12 39 -9
15 3 29 0 33 -8 6 -9 2 -11 -13 -7 -27 8 -28 -3 -2 -27 11 -10 20 -23 20 -29
0 -6 -7 -3 -14 7 -7 9 -17 17 -21 17 -4 0 -14 8 -22 18 -8 9 -11 11 -8 3 6 -9
1 -9 -17 3 -22 15 -25 14 -42 -5 -17 -20 -17 -21 1 -35 17 -14 16 -14 -4 -5
-31 16 -53 14 -47 -3 3 -8 11 -13 19 -10 7 3 15 -3 19 -13 3 -10 9 -24 12 -32
6 -12 4 -12 -10 0 -10 8 -25 21 -33 31 -17 17 -43 14 -43 -5 0 -6 14 -24 32
-39 18 -15 29 -30 26 -33 -10 -10 -81 62 -74 74 4 6 1 11 -6 12 -7 0 -3 4 9 9
17 7 21 15 17 36 -6 33 -12 44 -24 44 -10 0 -1 -40 14 -59 9 -12 7 -12 -12 -2
-14 7 -21 18 -18 26 3 8 1 17 -5 20 -5 4 -9 3 -8 -2 1 -4 1 -21 0 -38 l-2 -30
-11 25 c-10 23 -11 24 -17 5 -4 -15 -14 -20 -36 -19 -16 0 -38 -5 -48 -11 -16
-12 -17 -13 -1 -19 9 -3 23 -1 31 5 7 7 16 9 20 6 3 -4 -7 -12 -22 -19 -24
-11 -33 -9 -68 10 -31 17 -42 19 -48 10 -6 -9 1 -16 21 -23 32 -11 50 -25 32
-25 -6 0 -9 -8 -6 -17 4 -13 0 -11 -15 6 -16 17 -24 21 -34 13 -17 -14 -36 -1
-34 23 2 15 -6 21 -38 26 -22 4 -44 3 -49 -2 -6 -6 -4 -9 5 -9 9 0 21 -11 27
-25 6 -14 17 -25 23 -25 8 0 8 5 -1 15 -10 12 -10 19 -2 27 9 9 12 8 12 -5 0
-20 48 -69 60 -62 4 3 7 -6 6 -20 -1 -30 -12 -33 -21 -5 -7 22 -25 27 -25 8
-1 -7 -7 -2 -15 12 l-14 25 -1 -25 c0 -15 8 -30 20 -38 11 -7 20 -17 20 -24 0
-6 -9 -2 -20 10 -12 12 -25 22 -30 22 -5 0 -7 6 -4 14 3 8 1 17 -5 21 -6 3
-11 15 -11 26 0 14 -7 19 -24 19 -14 0 -28 5 -31 10 -4 6 -15 8 -26 5 -11 -4
-19 -2 -19 4 0 6 -4 11 -9 11 -5 0 -7 -9 -4 -21 5 -16 2 -20 -13 -17 -21 3
-26 7 -65 42 -15 13 -43 33 -63 45 -20 13 -34 27 -30 32 3 5 -4 9 -15 9 -11 0
-23 5 -26 11 -10 15 -38 6 -41 -14 -1 -9 1 -15 6 -12 16 10 39 -7 34 -23 -5
-15 -4 -15 9 1 19 23 24 22 31 -7 4 -17 17 -28 41 -36 19 -6 33 -16 29 -21 -3
-5 -10 -6 -16 -3 -7 5 -8 2 -3 -6 8 -14 -13 -32 -28 -23 -5 3 -3 9 4 14 11 7
10 9 -3 9 -10 0 -18 4 -18 9 0 8 -54 41 -67 41 -1 0 -3 -7 -3 -16 0 -8 4 -12
10 -9 14 8 50 -13 50 -30 0 -8 -9 -13 -21 -12 -18 1 -18 3 -4 13 13 9 13 13 2
17 -8 3 -21 -3 -30 -14 -9 -10 -12 -19 -7 -19 11 0 9 -22 -3 -31 -5 -3 -2 -9
7 -12 9 -4 15 -1 13 6 -1 6 8 13 21 15 12 2 22 -2 22 -9 0 -8 3 -9 13 0 18 15
28 3 21 -25 -5 -18 -1 -23 24 -29 27 -6 37 -14 41 -37 0 -5 -2 -8 -6 -7 -12 2
-26 -33 -16 -40 6 -3 13 -18 16 -33 6 -21 3 -28 -12 -33 -12 -4 -18 -12 -14
-21 3 -7 0 -14 -6 -14 -6 0 -10 16 -8 39 1 30 5 37 15 29 8 -7 12 -7 12 0 0 5
-7 15 -15 22 -8 7 -15 9 -15 4 0 -4 -11 3 -25 16 -13 12 -22 27 -19 31 3 5 2
14 -2 21 -5 7 -11 5 -21 -7 -12 -17 -13 -17 -13 -2 0 9 -6 17 -13 17 -7 0 -18
14 -24 31 -7 17 -21 33 -32 36 -12 3 -21 10 -21 15 0 12 -52 57 -67 58 -7 0
-17 10 -24 22 -10 19 -12 19 -21 5 -8 -15 -38 -25 -38 -13 0 2 -3 12 -7 21 -5
14 -2 16 18 10 18 -6 8 8 -35 50 -41 41 -60 54 -66 45 -4 -7 -13 -9 -20 -5 -9
6 -9 9 0 15 7 4 -1 13 -22 23 -28 14 -33 14 -36 2 -2 -8 -9 -15 -17 -15 -10 0
-12 11 -8 40 5 33 3 40 -11 40 -20 0 -48 25 -39 33 3 4 -6 12 -21 18 -14 7
-26 18 -26 25 0 7 -8 19 -18 26 -13 10 -16 20 -11 38 4 14 7 20 8 14 1 -7 9
-14 19 -16 10 -3 28 -26 40 -51 21 -45 58 -81 74 -71 4 3 5 -2 2 -10 -4 -11 9
-25 43 -45 26 -17 53 -34 58 -39 6 -4 17 -12 25 -17 13 -8 13 -7 0 10 -13 17
-13 18 1 13 13 -5 16 -2 12 13 -3 10 0 19 6 19 18 0 25 -29 11 -45 -10 -12 -8
-19 11 -39 29 -30 48 -19 43 25 -2 18 0 28 6 24 6 -3 10 -2 10 4 0 6 7 8 15 5
8 -4 15 -12 15 -20 0 -16 9 -18 30 -4 12 8 12 10 -3 16 -9 3 -17 12 -17 19 0
7 -7 15 -15 19 -8 3 -15 1 -15 -5 0 -6 -5 -7 -11 -4 -5 4 -20 -1 -31 -12 -12
-10 -19 -13 -15 -7 10 18 -49 47 -72 35 -16 -9 -18 -8 -14 9 6 21 37 27 48 9
4 -6 13 -8 21 -5 8 3 18 -2 21 -10 5 -15 7 -15 15 0 5 9 13 14 19 11 5 -4 9
-1 9 4 0 6 -11 11 -23 11 -13 0 -32 9 -42 20 -22 24 -55 29 -35 5 10 -13 9
-15 -8 -15 -12 0 -23 4 -26 9 -8 12 -55 20 -58 9 -2 -5 -16 5 -33 22 -21 21
-24 30 -13 30 23 0 31 41 10 56 -9 7 -19 10 -22 8 -2 -3 2 -9 9 -13 10 -6 11
-14 3 -26 -8 -16 -11 -14 -17 13 -3 17 -4 35 -1 40 3 5 -1 9 -9 9 -8 0 -15 -6
-15 -13 0 -6 -7 -14 -15 -18 -22 -8 -37 27 -25 60 10 26 10 26 -20 20 -29 -5
-30 -4 -15 10 18 18 16 35 -4 42 -9 3 -11 -2 -7 -19 6 -22 5 -23 -6 -5 -14 21
-33 40 -72 73 -23 19 -26 27 -21 65 5 38 4 40 -6 16 -7 -19 -15 -25 -27 -21
-12 4 -11 0 6 -16 22 -22 27 -33 16 -44 -7 -7 -94 25 -94 35 0 12 14 10 28 -4
7 -7 12 -10 13 -8 9 60 7 69 -16 94 -14 15 -29 25 -34 21 -5 -3 -12 -1 -16 5
-3 5 -1 10 5 10 6 0 5 11 -5 30 -9 17 -17 30 -19 30 -3 0 -12 3 -21 7 -16 6
-16 4 0 -21 10 -15 15 -29 12 -32 -3 -4 -15 9 -26 27 -11 19 -25 40 -31 47 -6
6 -7 12 -3 12 4 1 -3 7 -16 14 -24 14 -75 10 -65 -5 3 -5 15 -9 27 -10 13 0
16 -3 9 -6 -19 -7 -62 17 -62 35 0 10 -6 12 -17 7 -43 -17 -53 -18 -47 -1 4
11 1 16 -12 16 -28 0 -122 42 -128 57 -4 10 -1 10 17 -1 12 -8 38 -17 57 -21z
m1799 -176 c23 -7 45 -19 48 -26 3 -7 9 -13 15 -13 5 0 6 5 2 12 -5 8 -2 9 10
5 10 -4 24 -7 31 -7 7 0 16 -7 19 -16 5 -12 0 -14 -24 -10 -17 2 -30 1 -30 -4
0 -5 -3 -15 -6 -23 -4 -12 0 -14 15 -10 11 3 18 9 15 14 -3 5 0 9 5 9 8 0 9
-27 2 -47 -1 -1 -15 3 -32 9 -20 7 -27 14 -21 20 12 12 5 38 -10 38 -6 0 -8
-7 -4 -15 3 -8 2 -15 -3 -15 -5 0 -14 7 -21 15 -7 8 -8 15 -3 15 5 0 10 6 10
14 0 8 -6 12 -14 9 -7 -3 -11 -9 -8 -13 3 -5 1 -12 -5 -15 -8 -5 -7 -12 2 -22
10 -13 9 -15 -7 -11 -11 2 -19 10 -17 17 1 7 -2 9 -8 6 -8 -5 -6 -13 4 -24 19
-21 20 -31 3 -31 -7 0 -19 16 -27 35 -7 19 -16 33 -18 30 -3 -3 -12 1 -20 8
-13 10 -14 9 -3 -10 6 -13 16 -23 20 -23 5 0 11 -8 14 -19 4 -18 3 -18 -23 -3
-16 9 -26 20 -24 24 3 5 -2 8 -10 8 -9 0 -13 -7 -11 -19 5 -29 -19 -45 -36
-24 -8 9 -9 14 -3 10 7 -4 18 1 25 10 12 15 12 16 -5 9 -20 -7 -20 -7 -1 14
16 18 17 23 5 30 -8 5 -11 12 -7 16 3 4 15 1 24 -7 15 -11 16 -11 6 1 -20 21
-16 29 20 39 34 10 38 9 106 -10z m1816 -219 c212 -21 347 -61 353 -106 6 -42
-100 -64 -307 -64 -220 0 -410 34 -468 84 -24 20 -25 26 -14 40 7 9 35 22 62
30 43 13 53 13 87 -1 20 -8 53 -27 72 -41 36 -28 77 -52 88 -52 4 0 -5 7 -18
17 -59 39 -120 88 -120 95 0 11 134 10 265 -2z m-715 -69 c0 -5 -6 -11 -12
-14 -7 -2 -3 -2 10 0 12 2 22 -1 22 -7 0 -7 7 -7 21 1 13 7 19 7 15 1 -3 -6
-22 -16 -41 -22 -19 -6 -35 -16 -35 -22 0 -6 -11 -3 -25 6 -33 22 -43 20 -15
-2 l23 -19 -32 0 c-25 0 -39 -7 -58 -32 -26 -33 -34 -34 -111 -22 -2 1 -1 5 2
10 3 5 16 7 27 4 16 -4 20 -2 17 8 -3 8 -13 12 -23 11 -15 -3 -17 -1 -8 10 10
11 6 13 -21 13 -18 -1 -39 -5 -47 -10 -11 -6 -10 -4 2 9 8 9 39 19 68 23 29 3
59 12 67 20 11 11 14 12 14 1 0 -9 3 -10 8 -2 4 6 30 18 57 27 61 18 75 20 75
8z m295 -52 c4 -12 23 -39 42 -60 32 -35 34 -40 19 -55 -9 -8 -13 -20 -10 -26
9 -14 -3 -10 -188 65 -87 35 -155 67 -151 71 3 3 36 7 72 7 55 1 176 12 203
17 4 1 10 -7 13 -19z m-4321 -749 c147 -17 177 -34 221 -120 34 -68 20 -76
-37 -21 -33 32 -67 54 -95 61 -23 7 -43 16 -43 20 0 12 -81 30 -158 35 -39 2
-79 8 -88 13 -8 5 -61 7 -116 5 -103 -4 -153 1 -144 16 7 11 343 5 460 -9z"/>
<path d="M592 3038 c-6 -6 -12 -29 -12 -51 0 -30 -7 -46 -30 -69 -43 -43 -40
-97 10 -150 16 -18 18 -17 34 25 9 23 16 48 16 54 0 24 20 23 33 -3 l14 -26
22 53 c26 59 24 107 -7 149 -21 28 -61 37 -80 18z"/>
<path d="M1890 2764 c-8 -2 -95 -8 -192 -15 l-177 -12 3 -421 c2 -231 4 -621
5 -865 l1 -443 28 7 c15 4 59 13 97 20 39 7 116 21 173 31 l103 18 -2 417 -1
416 -24 -5 c-19 -3 -23 -1 -18 12 4 11 1 16 -10 16 -23 0 -20 18 15 80 l31 55
-2 340 c0 187 -4 343 -8 346 -4 3 -14 4 -22 3z"/>
<path d="M895 2491 c12 -6 14 -10 6 -10 -8 -1 -19 -8 -26 -17 -10 -15 -14 -15
-36 -2 -13 9 -36 18 -50 22 -22 5 -25 2 -25 -17 1 -20 -3 -22 -51 -19 -32 1
-62 -3 -75 -11 -35 -22 -81 -16 -93 11 -13 29 -27 28 -46 -5 -16 -30 -15 -63
3 -63 7 0 6 -5 -2 -14 -6 -8 -18 -12 -26 -9 -7 3 -26 -6 -42 -18 -24 -21 -26
-27 -16 -47 6 -13 15 -19 18 -14 3 6 34 10 68 10 l63 -1 20 41 c19 39 22 40
63 37 33 -2 51 -10 76 -34 46 -45 73 -32 68 32 -1 11 2 15 9 12 6 -4 13 2 16
14 6 25 23 28 24 4 0 -12 4 -8 11 10 7 20 16 27 37 27 15 0 32 -5 39 -12 9 -9
15 -9 24 0 7 7 20 12 31 12 12 0 16 4 11 13 -6 10 -4 10 7 0 7 -7 21 -13 32
-13 11 0 15 -4 11 -12 -5 -7 -2 -9 8 -5 9 3 20 1 26 -5 7 -7 16 -6 30 1 30 16
39 14 16 -4 -17 -13 -15 -13 18 0 21 9 38 11 40 5 2 -6 14 -6 33 -1 17 5 22
10 13 10 -30 2 -32 2 -60 22 -19 14 -45 20 -85 20 -32 1 -69 7 -83 14 -14 7
-48 16 -75 19 -35 4 -44 3 -30 -3z"/>
<path d="M223 1543 c-7 -2 -13 -18 -13 -34 0 -22 -6 -32 -25 -39 -33 -13 -33
-53 1 -87 37 -37 22 -39 -20 -2 -20 17 -39 29 -42 26 -8 -8 26 -77 38 -77 5 0
20 -11 33 -24 l23 -23 7 33 c6 32 8 34 48 35 23 1 50 1 60 0 19 -2 22 10 7 25
-6 6 -12 21 -15 34 -2 12 -6 23 -7 24 -2 1 -19 9 -39 18 -35 16 -36 18 -32 57
5 40 1 45 -24 34z"/>
<path d="M1 833 l-1 -332 37 6 c21 3 40 8 43 12 3 3 4 142 2 309 -2 276 -9
340 -27 282 -9 -30 -20 -24 -38 18 -14 34 -15 14 -16 -295z"/>
</g>
</svg>
